<svg xmlns="http://www.w3.org/2000/svg" width="560" height="350" viewBox="0 0 560 350">
  <rect width="560" height="350" fill="#2a1a1a"/>
  <path d="M120 160 L220 100 L320 140 L420 90" stroke="#b5654a" stroke-width="2.5" fill="none" opacity="0.6"/>
  <path d="M120 180 L220 120 L320 160 L420 110" stroke="#b5654a" stroke-width="1.5" fill="none" opacity="0.3" stroke-dasharray="4 3"/>
  <circle cx="120" cy="160" r="6" fill="#e8a33d" opacity="0.7"/>
  <circle cx="220" cy="100" r="6" fill="#e8a33d" opacity="0.7"/>
  <circle cx="320" cy="140" r="6" fill="#e8a33d" opacity="0.7"/>
  <circle cx="420" cy="90" r="6" fill="#e8a33d" opacity="0.7"/>
  <rect x="60" y="220" width="120" height="30" rx="4" fill="#4a2a2a" opacity="0.5"/>
  <rect x="70" y="230" width="100" height="10" rx="3" fill="#b5654a" opacity="0.4"/>
  <rect x="210" y="220" width="120" height="30" rx="4" fill="#4a2a2a" opacity="0.5"/>
  <rect x="220" y="230" width="100" height="10" rx="3" fill="#e8a33d" opacity="0.4"/>
  <rect x="360" y="220" width="120" height="30" rx="4" fill="#4a2a2a" opacity="0.5"/>
  <rect x="370" y="230" width="100" height="10" rx="3" fill="#b5654a" opacity="0.4"/>
  <text x="280" y="310" font-family="monospace" font-size="11" fill="#b5654a" text-anchor="middle" opacity="0.7">Himalayan Hawala</text>
</svg>
