<svg xmlns="http://www.w3.org/2000/svg" width="560" height="350" viewBox="0 0 560 350">
  <rect width="560" height="350" fill="#1a2a2a"/>
  <rect x="60" y="60" width="160" height="200" rx="4" fill="#2a3a3a" opacity="0.5"/>
  <rect x="75" y="80" width="80" height="8" rx="3" fill="#4a7a7a" opacity="0.5"/>
  <rect x="75" y="100" width="130" height="4" rx="2" fill="#3a5a5a" opacity="0.4"/>
  <rect x="75" y="112" width="110" height="4" rx="2" fill="#3a5a5a" opacity="0.3"/>
  <rect x="75" y="124" width="120" height="4" rx="2" fill="#3a5a5a" opacity="0.4"/>
  <rect x="75" y="145" width="130" height="80" rx="2" fill="#3a5a5a" opacity="0.3"/>
  <rect x="75" y="240" width="60" height="8" rx="3" fill="#4a7a7a" opacity="0.4"/>
  <line x1="240" y1="120" x2="240" y2="200" stroke="#4a7a7a" stroke-width="1.5" opacity="0.3" stroke-dasharray="3 3"/>
  <path d="M270 100 Q320 80 370 100 Q420 120 470 100" stroke="#4a7a7a" stroke-width="2" fill="none" opacity="0.5"/>
  <circle cx="270" cy="100" r="4" fill="#e8a33d" opacity="0.6"/>
  <circle cx="370" cy="100" r="4" fill="#e8a33d" opacity="0.6"/>
  <circle cx="470" cy="100" r="4" fill="#e8a33d" opacity="0.6"/>
  <rect x="270" y="170" width="180" height="8" rx="3" fill="#3a5a5a" opacity="0.3"/>
  <rect x="270" y="185" width="150" height="6" rx="3" fill="#3a5a5a" opacity="0.2"/>
  <rect x="270" y="200" width="160" height="6" rx="3" fill="#3a5a5a" opacity="0.2"/>
  <text x="280" y="310" font-family="monospace" font-size="11" fill="#4a8a8a" text-anchor="middle" opacity="0.7">Paper Recommender</text>
</svg>
